<mxfile host="app.diagrams.net" agent="Mozilla/5.0 (Windows NT 10.0; Win64; x64) AppleWebKit/537.36 (KHTML, like Gecko) Chrome/131.0.0.0 Safari/537.36" version="25.0.3">
  <diagram id="C5RBs43oDa-KdzZeNtuy" name="Page-1">
    <mxGraphModel dx="2345" dy="964" grid="1" gridSize="10" guides="1" tooltips="1" connect="1" arrows="1" fold="1" page="1" pageScale="1" pageWidth="827" pageHeight="1169" math="0" shadow="0">
      <root>
        <mxCell id="WIyWlLk6GJQsqaUBKTNV-0" />
        <mxCell id="WIyWlLk6GJQsqaUBKTNV-1" parent="WIyWlLk6GJQsqaUBKTNV-0" />
        <mxCell id="Qe_iKj6EmhDJZGUdukqA-15" style="edgeStyle=orthogonalEdgeStyle;rounded=0;orthogonalLoop=1;jettySize=auto;html=1;exitX=0.5;exitY=1;exitDx=0;exitDy=0;exitPerimeter=0;entryX=0.5;entryY=0;entryDx=0;entryDy=0;" edge="1" parent="WIyWlLk6GJQsqaUBKTNV-1" source="Qe_iKj6EmhDJZGUdukqA-0" target="Qe_iKj6EmhDJZGUdukqA-3">
          <mxGeometry relative="1" as="geometry" />
        </mxCell>
        <mxCell id="Qe_iKj6EmhDJZGUdukqA-0" value="START" style="strokeWidth=2;html=1;shape=mxgraph.flowchart.start_1;whiteSpace=wrap;" vertex="1" parent="WIyWlLk6GJQsqaUBKTNV-1">
          <mxGeometry x="538" y="30" width="100" height="60" as="geometry" />
        </mxCell>
        <mxCell id="Qe_iKj6EmhDJZGUdukqA-22" style="edgeStyle=orthogonalEdgeStyle;rounded=0;orthogonalLoop=1;jettySize=auto;html=1;exitX=0.5;exitY=1;exitDx=0;exitDy=0;" edge="1" parent="WIyWlLk6GJQsqaUBKTNV-1" source="Qe_iKj6EmhDJZGUdukqA-3" target="Qe_iKj6EmhDJZGUdukqA-21">
          <mxGeometry relative="1" as="geometry" />
        </mxCell>
        <mxCell id="Qe_iKj6EmhDJZGUdukqA-3" value="READ N&amp;nbsp;" style="shape=parallelogram;html=1;strokeWidth=2;perimeter=parallelogramPerimeter;whiteSpace=wrap;rounded=1;arcSize=12;size=0.23;" vertex="1" parent="WIyWlLk6GJQsqaUBKTNV-1">
          <mxGeometry x="478" y="130" width="220" height="60" as="geometry" />
        </mxCell>
        <mxCell id="Qe_iKj6EmhDJZGUdukqA-26" style="edgeStyle=orthogonalEdgeStyle;rounded=0;orthogonalLoop=1;jettySize=auto;html=1;exitX=0.5;exitY=1;exitDx=0;exitDy=0;entryX=0.5;entryY=0;entryDx=0;entryDy=0;" edge="1" parent="WIyWlLk6GJQsqaUBKTNV-1" source="Qe_iKj6EmhDJZGUdukqA-5" target="Qe_iKj6EmhDJZGUdukqA-24">
          <mxGeometry relative="1" as="geometry" />
        </mxCell>
        <mxCell id="Qe_iKj6EmhDJZGUdukqA-5" value="COUNTER = COUNTER + 1" style="rounded=1;whiteSpace=wrap;html=1;absoluteArcSize=1;arcSize=14;strokeWidth=2;" vertex="1" parent="WIyWlLk6GJQsqaUBKTNV-1">
          <mxGeometry x="480" y="370" width="216" height="60" as="geometry" />
        </mxCell>
        <mxCell id="Qe_iKj6EmhDJZGUdukqA-27" style="edgeStyle=orthogonalEdgeStyle;rounded=0;orthogonalLoop=1;jettySize=auto;html=1;exitX=0.5;exitY=1;exitDx=0;exitDy=0;exitPerimeter=0;" edge="1" parent="WIyWlLk6GJQsqaUBKTNV-1" source="Qe_iKj6EmhDJZGUdukqA-6" target="Qe_iKj6EmhDJZGUdukqA-19">
          <mxGeometry relative="1" as="geometry" />
        </mxCell>
        <mxCell id="Qe_iKj6EmhDJZGUdukqA-30" value="YES" style="edgeLabel;html=1;align=center;verticalAlign=middle;resizable=0;points=[];" vertex="1" connectable="0" parent="Qe_iKj6EmhDJZGUdukqA-27">
          <mxGeometry x="-0.16" y="1" relative="1" as="geometry">
            <mxPoint as="offset" />
          </mxGeometry>
        </mxCell>
        <mxCell id="Qe_iKj6EmhDJZGUdukqA-31" style="edgeStyle=orthogonalEdgeStyle;rounded=0;orthogonalLoop=1;jettySize=auto;html=1;exitX=0;exitY=0.5;exitDx=0;exitDy=0;exitPerimeter=0;entryX=0;entryY=0.5;entryDx=0;entryDy=0;" edge="1" parent="WIyWlLk6GJQsqaUBKTNV-1" source="Qe_iKj6EmhDJZGUdukqA-6" target="Qe_iKj6EmhDJZGUdukqA-5">
          <mxGeometry relative="1" as="geometry">
            <Array as="points">
              <mxPoint x="150" y="640" />
              <mxPoint x="150" y="400" />
            </Array>
          </mxGeometry>
        </mxCell>
        <mxCell id="Qe_iKj6EmhDJZGUdukqA-33" value="NO" style="edgeLabel;html=1;align=center;verticalAlign=middle;resizable=0;points=[];" vertex="1" connectable="0" parent="Qe_iKj6EmhDJZGUdukqA-31">
          <mxGeometry x="-0.8084" relative="1" as="geometry">
            <mxPoint as="offset" />
          </mxGeometry>
        </mxCell>
        <mxCell id="Qe_iKj6EmhDJZGUdukqA-6" value="COUNTER = N" style="strokeWidth=2;html=1;shape=mxgraph.flowchart.decision;whiteSpace=wrap;" vertex="1" parent="WIyWlLk6GJQsqaUBKTNV-1">
          <mxGeometry x="270" y="570" width="160" height="140" as="geometry" />
        </mxCell>
        <mxCell id="Qe_iKj6EmhDJZGUdukqA-19" value="END" style="strokeWidth=2;html=1;shape=mxgraph.flowchart.terminator;whiteSpace=wrap;" vertex="1" parent="WIyWlLk6GJQsqaUBKTNV-1">
          <mxGeometry x="300" y="800" width="100" height="60" as="geometry" />
        </mxCell>
        <mxCell id="Qe_iKj6EmhDJZGUdukqA-23" style="edgeStyle=orthogonalEdgeStyle;rounded=0;orthogonalLoop=1;jettySize=auto;html=1;exitX=0.5;exitY=1;exitDx=0;exitDy=0;entryX=0.5;entryY=0;entryDx=0;entryDy=0;" edge="1" parent="WIyWlLk6GJQsqaUBKTNV-1" source="Qe_iKj6EmhDJZGUdukqA-21" target="Qe_iKj6EmhDJZGUdukqA-5">
          <mxGeometry relative="1" as="geometry" />
        </mxCell>
        <mxCell id="Qe_iKj6EmhDJZGUdukqA-21" value="COUNTER = 0" style="rounded=1;whiteSpace=wrap;html=1;absoluteArcSize=1;arcSize=14;strokeWidth=2;" vertex="1" parent="WIyWlLk6GJQsqaUBKTNV-1">
          <mxGeometry x="480" y="230" width="216" height="60" as="geometry" />
        </mxCell>
        <mxCell id="Qe_iKj6EmhDJZGUdukqA-24" value="PRINT COUNTER" style="shape=parallelogram;html=1;strokeWidth=2;perimeter=parallelogramPerimeter;whiteSpace=wrap;rounded=1;arcSize=12;size=0.23;" vertex="1" parent="WIyWlLk6GJQsqaUBKTNV-1">
          <mxGeometry x="480" y="500" width="216" height="60" as="geometry" />
        </mxCell>
        <mxCell id="Qe_iKj6EmhDJZGUdukqA-32" style="edgeStyle=orthogonalEdgeStyle;rounded=0;orthogonalLoop=1;jettySize=auto;html=1;exitX=0.5;exitY=1;exitDx=0;exitDy=0;entryX=1;entryY=0.5;entryDx=0;entryDy=0;entryPerimeter=0;" edge="1" parent="WIyWlLk6GJQsqaUBKTNV-1" source="Qe_iKj6EmhDJZGUdukqA-24" target="Qe_iKj6EmhDJZGUdukqA-6">
          <mxGeometry relative="1" as="geometry" />
        </mxCell>
      </root>
    </mxGraphModel>
  </diagram>
</mxfile>
